# xmcd CD database file
# Copyright (C) 1995-1998 Ti Kan
#
# Track frame offsets:
#	150
#	20322
#	42390
#	59322
#	76309
#	99499
#	125274
#	144689
#	160649
#	180217
#
# Disc length: 2711 seconds
#
# Revision: 1
# Processed by: cddbd v1.4PL0 Copyright (c) Steve Scherf et al.
# Submitted via: CDex 1.30Release
#
DISCID=730a950a
DTITLE=Zakiya Hooker - Flavors of the blues
DYEAR=1999
DGENRE=Blues
TTITLE0=Stones in my Pathway
TTITLE1=New Orleans Rain
TTITLE2=Art of Divorce
TTITLE3=Baby you busted
TTITLE4=Bit by love
TTITLE5=Downing in your love
TTITLE6=Let's do something
TTITLE7=Look me up
TTITLE8=Protect me from the blues
TTITLE9=Receipt to see the blues
EXTD=YEAR: 1999 ID3G:   0
EXTT0=
EXTT1=
EXTT2=
EXTT3=
EXTT4=
EXTT5=
EXTT6=
EXTT7=
EXTT8=
EXTT9=
PLAYORDER=
